<svg width="104" height="84" viewBox="0 0 104 84" fill="none" xmlns="http://www.w3.org/2000/svg">
<path d="M103.667 5.58342V26.2501C103.667 29.1036 101.353 31.4167 98.5 31.4167C95.6465 31.4167 93.3333 29.1036 93.3333 26.2501V18.6034L61.0416 55.4934C60.0622 56.6083 58.6507 57.2482 57.1666 57.2501C55.7323 57.2867 54.3472 56.7252 53.3433 55.7001L41.77 44.0234L9.21998 81.3268C8.02839 82.8062 6.12106 83.5124 4.25332 83.1657C2.38559 82.8191 0.858731 81.4754 0.277407 79.6669C-0.303917 77.8584 0.154065 75.8768 1.46998 74.5068L37.6366 33.1734C38.5773 32.0957 39.9226 31.4563 41.3523 31.4073C42.7819 31.3584 44.1678 31.9043 45.18 32.9151L57.1666 44.4884L86.4616 10.7501H77.8333C74.9798 10.7501 72.6666 8.43689 72.6666 5.58342C72.6666 2.72994 74.9798 0.416748 77.8333 0.416748H98.5C101.353 0.416748 103.667 2.72994 103.667 5.58342Z" fill="#5FB6D9"/>
</svg>
