<svg width="104" height="104" viewBox="0 0 104 104" fill="none" xmlns="http://www.w3.org/2000/svg">
<path fill-rule="evenodd" clip-rule="evenodd" d="M77.8333 26.4166C77.8333 12.1492 66.2673 0.583252 52 0.583252C37.7326 0.583252 26.1666 12.1492 26.1666 26.4166C26.1666 40.6839 37.7326 52.2499 52 52.2499H46.8333C21.1521 52.2499 0.333313 73.0687 0.333313 98.7499C0.333313 101.603 2.64651 103.917 5.49998 103.917H98.5C101.353 103.917 103.667 101.603 103.667 98.7499C103.667 73.0687 82.8479 52.2499 57.1666 52.2499H52C58.8514 52.2499 65.4222 49.5282 70.2669 44.6835C75.1116 39.8388 77.8333 33.268 77.8333 26.4166ZM46.8333 62.5833C28.8514 62.5786 13.5972 75.7857 11.0283 93.5833H92.9716C90.4028 75.7857 75.1486 62.5786 57.1666 62.5833H46.8333ZM36.5 26.4166C36.5 34.977 43.4396 41.9166 52 41.9166C56.1108 41.9166 60.0533 40.2836 62.9601 37.3767C65.8669 34.4699 67.5 30.5274 67.5 26.4166C67.5 17.8562 60.5604 10.9166 52 10.9166C43.4396 10.9166 36.5 17.8562 36.5 26.4166Z" fill="#5FB6D9"/>
</svg>
