<svg width="72" height="109" viewBox="0 0 72 109" fill="none" xmlns="http://www.w3.org/2000/svg">
<path fill-rule="evenodd" clip-rule="evenodd" d="M71.65 58.0333L67.9817 41.5L71.65 24.9667C72.2272 22.3449 70.7004 19.7179 68.1367 18.9217L51.965 13.755L39.5133 2.33666C37.5316 0.498784 34.4683 0.498784 32.4867 2.33666L20.035 13.8067L3.86333 18.9733C1.32342 19.7681 -0.197262 22.3622 0.349993 24.9667L4.01833 41.5L0.349993 58.0333C-0.227187 60.6551 1.29961 63.2821 3.86333 64.0783L15.3333 67.695V103.5C15.3431 105.395 16.39 107.133 18.0609 108.028C19.7319 108.923 21.7587 108.831 23.3417 107.788L36 99.3667L48.6583 107.788C50.2413 108.831 52.2681 108.923 53.9391 108.028C55.61 107.133 56.6569 105.395 56.6667 103.5V67.695L68.1367 64.0783C70.7004 63.2821 72.2272 60.6551 71.65 58.0333ZM33.1583 89.0333L25.6667 94.2V74.36L32.4867 80.6633C33.4474 81.5366 34.7017 82.0162 36 82.0067C37.2938 81.9922 38.5399 81.5158 39.5133 80.6633L46.3333 74.36V93.8383L38.8417 89.0333C37.1174 87.8978 34.8826 87.8978 33.1583 89.0333ZM45.8167 60.9267C46.3889 60.4208 47.0564 60.0344 47.78 59.79L60.5417 55.6567L57.5967 42.6367C57.4421 41.8868 57.4421 41.1132 57.5967 40.3633L60.5417 27.3433L47.78 23.365C47.0564 23.1206 46.3889 22.7342 45.8167 22.2283L36 13.1867L26.1833 22.2283C25.6111 22.7342 24.9436 23.1206 24.22 23.365L11.4583 27.3433L14.4033 40.3633C14.5579 41.1132 14.5579 41.8868 14.4033 42.6367L11.4583 55.6567L24.22 59.635C24.9436 59.8794 25.6111 60.2658 26.1833 60.7717L36 69.8133L45.8167 60.9267Z" fill="#5FB6D9"/>
</svg>
